<svg width="23" height="23" viewBox="0 0 23 23" fill="none" xmlns="http://www.w3.org/2000/svg">
<g clip-path="url(#clip0_92_365)">
<path d="M5.49609 11.7484L8.09342 15.0728" stroke="#B8FF34" stroke-width="0.9375" stroke-miterlimit="10"/>
<path d="M6.18848 8.82794L9.15552 12.6256" stroke="#B8FF34" stroke-width="0.9375" stroke-miterlimit="10"/>
<path d="M8.03613 7.38495L11.2815 11.5388" stroke="#B8FF34" stroke-width="0.9375" stroke-miterlimit="10"/>
<path d="M14.3572 11.6694C14.7541 12.1774 15.5671 11.9519 15.6457 11.3121L15.8517 9.634C15.9262 9.02735 16.4784 8.59593 17.085 8.67042C17.6917 8.7449 18.1231 9.2971 18.0486 9.90375L17.4926 14.4321C17.3185 15.85 16.5883 17.1407 15.4625 18.0203L14.0007 19.1624C12.0506 20.686 9.23456 20.3402 7.71097 18.3901L3.64932 13.1914C3.25085 12.6814 3.34127 11.945 3.85129 11.5465C4.3613 11.148 5.09775 11.2385 5.49622 11.7485L4.34185 10.271C3.94338 9.76094 4.03381 9.02449 4.54382 8.62602C5.05384 8.22755 5.79028 8.31798 6.18875 8.82799L5.61157 8.08923C5.2131 7.57922 5.30352 6.84277 5.81354 6.44431C6.32356 6.04584 7.06 6.13626 7.45847 6.64628L8.03565 7.38504C7.63718 6.87502 7.72761 6.13858 8.23762 5.74011C8.74764 5.34164 9.48408 5.43207 9.88255 5.94208L14.3572 11.6694Z" stroke="#B8FF34" stroke-width="0.9375" stroke-miterlimit="10"/>
</g>
<defs>
<clipPath id="clip0_92_365">
<rect width="16" height="16" fill="white" transform="translate(0 10.3918) rotate(-38)"/>
</clipPath>
</defs>
</svg>
