<svg width="1440" height="736" viewBox="0 0 1440 736" fill="none" xmlns="http://www.w3.org/2000/svg">
<rect width="1440" height="736" rx="3" fill="#F0F0F0"/>
<path d="M107.482 76.9091H135.926L165.969 150.205H167.247L197.29 76.9091H225.734V186H203.362V114.995H202.457L174.225 185.467H158.991L130.759 114.729H129.854V186H107.482V76.9091ZM256.041 186H231.325L268.985 76.9091H298.708L336.314 186H311.598L284.272 101.838H283.42L256.041 186ZM254.496 143.12H312.877V161.124H254.496V143.12ZM341.944 186V76.9091H365.009V125.009H366.447L405.705 76.9091H433.351L392.868 125.755L433.83 186H406.238L376.355 141.149L365.009 154.999V186H341.944ZM437.862 186V76.9091H511.371V95.9254H460.927V121.92H507.589V140.936H460.927V166.984H511.584V186H437.862ZM572.49 76.9091V186H549.425V76.9091H572.49ZM579.811 95.9254V76.9091H669.406V95.9254H636.008V186H613.21V95.9254H579.811ZM638.378 306.085L637.792 311.945C637.331 316.632 636.443 321.302 635.129 325.954C633.85 330.641 632.501 334.885 631.081 338.685C629.696 342.484 628.577 345.467 627.725 347.634H613.023C613.556 345.538 614.284 342.609 615.207 338.844C616.13 335.116 617 330.925 617.817 326.273C618.634 321.621 619.149 316.881 619.362 312.051L619.628 306.085H638.378ZM107.482 456V346.909H151.161C159.186 346.909 165.88 348.099 171.242 350.478C176.604 352.857 180.635 356.16 183.334 360.386C186.033 364.576 187.382 369.406 187.382 374.874C187.382 379.136 186.53 382.882 184.825 386.114C183.121 389.31 180.777 391.937 177.794 393.997C174.847 396.021 171.473 397.46 167.673 398.312V399.377C171.828 399.555 175.717 400.727 179.339 402.893C182.996 405.059 185.962 408.095 188.234 412.001C190.507 415.872 191.643 420.489 191.643 425.851C191.643 431.639 190.205 436.806 187.329 441.352C184.488 445.862 180.28 449.43 174.705 452.058C169.129 454.686 162.258 456 154.09 456H107.482ZM130.546 437.143H149.349C155.777 437.143 160.464 435.918 163.412 433.468C166.359 430.982 167.833 427.68 167.833 423.56C167.833 420.542 167.105 417.879 165.649 415.57C164.193 413.262 162.116 411.451 159.417 410.137C156.754 408.823 153.575 408.166 149.882 408.166H130.546V437.143ZM130.546 392.559H147.645C150.805 392.559 153.611 392.009 156.061 390.908C158.547 389.771 160.5 388.173 161.92 386.114C163.376 384.054 164.104 381.586 164.104 378.71C164.104 374.768 162.702 371.589 159.896 369.175C157.126 366.76 153.185 365.553 148.071 365.553H130.546V392.559ZM266.534 346.909H289.599V417.754C289.599 425.709 287.699 432.669 283.899 438.635C280.135 444.601 274.862 449.253 268.079 452.591C261.296 455.893 253.395 457.545 244.375 457.545C235.32 457.545 227.401 455.893 220.618 452.591C213.835 449.253 208.562 444.601 204.798 438.635C201.034 432.669 199.151 425.709 199.151 417.754V346.909H222.216V415.783C222.216 419.938 223.122 423.631 224.933 426.863C226.779 430.094 229.372 432.634 232.71 434.48C236.048 436.327 239.936 437.25 244.375 437.25C248.85 437.25 252.738 436.327 256.041 434.48C259.379 432.634 261.953 430.094 263.764 426.863C265.611 423.631 266.534 419.938 266.534 415.783V346.909ZM296.92 365.925V346.909H386.516V365.925H353.117V456H330.319V365.925H296.92Z" fill="#121212"/>
<path d="M166.661 243.283C166.235 238.987 164.406 235.648 161.175 233.269C157.943 230.89 153.558 229.7 148.018 229.7C144.254 229.7 141.075 230.233 138.483 231.298C135.891 232.328 133.902 233.766 132.517 235.613C131.168 237.46 130.493 239.555 130.493 241.898C130.422 243.852 130.83 245.556 131.718 247.012C132.641 248.468 133.902 249.729 135.5 250.794C137.098 251.824 138.945 252.729 141.04 253.511C143.135 254.256 145.372 254.896 147.751 255.428L157.553 257.772C162.311 258.837 166.679 260.258 170.656 262.033C174.634 263.809 178.078 265.993 180.99 268.585C183.902 271.178 186.157 274.232 187.755 277.747C189.388 281.263 190.223 285.293 190.259 289.839C190.223 296.515 188.518 302.303 185.145 307.204C181.807 312.069 176.977 315.851 170.656 318.55C164.371 321.213 156.789 322.545 147.911 322.545C139.104 322.545 131.434 321.195 124.9 318.496C118.401 315.798 113.323 311.803 109.665 306.511C106.043 301.185 104.143 294.597 103.966 286.749H126.285C126.533 290.407 127.581 293.461 129.428 295.911C131.31 298.326 133.813 300.155 136.938 301.398C140.099 302.605 143.668 303.209 147.645 303.209C151.551 303.209 154.942 302.641 157.819 301.504C160.731 300.368 162.986 298.788 164.584 296.763C166.182 294.739 166.981 292.413 166.981 289.786C166.981 287.335 166.253 285.276 164.797 283.607C163.376 281.937 161.281 280.517 158.511 279.345C155.777 278.173 152.421 277.108 148.444 276.149L136.565 273.166C127.368 270.929 120.106 267.431 114.779 262.673C109.452 257.914 106.807 251.504 106.842 243.443C106.807 236.838 108.565 231.067 112.116 226.131C115.702 221.195 120.621 217.342 126.871 214.572C133.121 211.803 140.223 210.418 148.178 210.418C156.274 210.418 163.341 211.803 169.378 214.572C175.45 217.342 180.173 221.195 183.547 226.131C186.92 231.067 188.661 236.785 188.767 243.283H166.661ZM221.337 211.909V321H198.273V211.909H221.337ZM232.814 211.909H261.258L291.301 285.205H292.579L322.622 211.909H351.066V321H328.694V249.995H327.789L299.557 320.467H284.323L256.091 249.729H255.186V321H232.814V211.909ZM362.569 321V211.909H405.609C413.883 211.909 420.932 213.489 426.756 216.65C432.58 219.775 437.019 224.125 440.073 229.7C443.162 235.24 444.707 241.632 444.707 248.876C444.707 256.121 443.145 262.513 440.02 268.053C436.895 273.592 432.367 277.907 426.437 280.996C420.542 284.086 413.404 285.631 405.023 285.631H377.591V267.147H401.295C405.733 267.147 409.391 266.384 412.268 264.857C415.18 263.294 417.346 261.146 418.766 258.411C420.222 255.641 420.95 252.463 420.95 248.876C420.95 245.254 420.222 242.094 418.766 239.395C417.346 236.661 415.18 234.548 412.268 233.056C409.356 231.529 405.662 230.766 401.188 230.766H385.634V321H362.569ZM452.189 321V211.909H475.253V301.984H522.022V321H452.189ZM529.796 321V211.909H603.305V230.925H552.861V256.92H599.523V275.936H552.861V301.984H603.518V321H529.796ZM166.661 513.283C166.235 508.987 164.406 505.648 161.175 503.269C157.943 500.89 153.558 499.7 148.018 499.7C144.254 499.7 141.075 500.233 138.483 501.298C135.891 502.328 133.902 503.766 132.517 505.613C131.168 507.46 130.493 509.555 130.493 511.898C130.422 513.852 130.83 515.556 131.718 517.012C132.641 518.468 133.902 519.729 135.5 520.794C137.098 521.824 138.945 522.729 141.04 523.511C143.135 524.256 145.372 524.896 147.751 525.428L157.553 527.772C162.311 528.837 166.679 530.258 170.656 532.033C174.634 533.809 178.078 535.993 180.99 538.585C183.902 541.178 186.157 544.232 187.755 547.747C189.388 551.263 190.223 555.293 190.259 559.839C190.223 566.515 188.518 572.303 185.145 577.204C181.807 582.069 176.977 585.851 170.656 588.55C164.371 591.213 156.789 592.545 147.911 592.545C139.104 592.545 131.434 591.195 124.9 588.496C118.401 585.798 113.323 581.803 109.665 576.511C106.043 571.185 104.143 564.597 103.966 556.749H126.285C126.533 560.407 127.581 563.461 129.428 565.911C131.31 568.326 133.813 570.155 136.938 571.398C140.099 572.605 143.668 573.209 147.645 573.209C151.551 573.209 154.942 572.641 157.819 571.504C160.731 570.368 162.986 568.788 164.584 566.763C166.182 564.739 166.981 562.413 166.981 559.786C166.981 557.335 166.253 555.276 164.797 553.607C163.376 551.937 161.281 550.517 158.511 549.345C155.777 548.173 152.421 547.108 148.444 546.149L136.565 543.166C127.368 540.929 120.106 537.431 114.779 532.673C109.452 527.914 106.807 521.504 106.842 513.443C106.807 506.838 108.565 501.067 112.116 496.131C115.702 491.195 120.621 487.342 126.871 484.572C133.121 481.803 140.223 480.418 148.178 480.418C156.274 480.418 163.341 481.803 169.378 484.572C175.45 487.342 180.173 491.195 183.547 496.131C186.92 501.067 188.661 506.785 188.767 513.283H166.661ZM221.337 481.909V591H198.273V481.909H221.337ZM305.15 517.172C304.404 514.58 303.357 512.289 302.007 510.3C300.658 508.276 299.007 506.572 297.054 505.187C295.136 503.766 292.934 502.683 290.449 501.938C287.998 501.192 285.282 500.819 282.299 500.819C276.723 500.819 271.823 502.204 267.597 504.974C263.407 507.744 260.14 511.774 257.796 517.065C255.452 522.321 254.28 528.749 254.28 536.348C254.28 543.947 255.434 550.411 257.743 555.737C260.051 561.064 263.318 565.13 267.544 567.935C271.77 570.705 276.759 572.09 282.512 572.09C287.732 572.09 292.189 571.167 295.882 569.32C299.61 567.438 302.451 564.793 304.404 561.384C306.393 557.974 307.387 553.944 307.387 549.292L312.075 549.984H283.95V532.619H329.6V546.362C329.6 555.95 327.576 564.189 323.527 571.078C319.479 577.932 313.904 583.223 306.801 586.952C299.699 590.645 291.567 592.491 282.405 592.491C272.178 592.491 263.194 590.237 255.452 585.727C247.711 581.181 241.674 574.736 237.341 566.391C233.044 558.01 230.896 548.067 230.896 536.561C230.896 527.719 232.174 519.835 234.731 512.911C237.324 505.95 240.946 500.055 245.598 495.226C250.25 490.396 255.665 486.721 261.844 484.2C268.023 481.678 274.717 480.418 281.926 480.418C288.105 480.418 293.858 481.323 299.184 483.134C304.511 484.91 309.234 487.431 313.353 490.698C317.508 493.965 320.9 497.854 323.527 502.364C326.155 506.838 327.842 511.774 328.588 517.172H305.15ZM430.671 481.909V591H410.749L363.289 522.339H362.49V591H339.425V481.909H359.666L406.754 550.517H407.713V481.909H430.671ZM465.292 481.909V591H442.228V481.909H465.292ZM476.769 591V481.909H548.999V500.925H499.833V526.92H544.205V545.936H499.833V591H476.769ZM580.077 481.909V591H557.013V481.909H580.077ZM687.807 520.102H664.476C664.05 517.083 663.18 514.402 661.866 512.058C660.552 509.679 658.866 507.655 656.806 505.986C654.746 504.317 652.367 503.038 649.668 502.151C647.005 501.263 644.111 500.819 640.986 500.819C635.339 500.819 630.421 502.222 626.231 505.027C622.04 507.797 618.791 511.845 616.483 517.172C614.175 522.463 613.02 528.891 613.02 536.455C613.02 544.232 614.175 550.766 616.483 556.057C618.827 561.348 622.094 565.343 626.284 568.042C630.474 570.741 635.322 572.09 640.826 572.09C643.915 572.09 646.774 571.682 649.402 570.865C652.065 570.048 654.427 568.859 656.486 567.296C658.546 565.698 660.251 563.763 661.6 561.49C662.985 559.217 663.944 556.625 664.476 553.713L687.807 553.82C687.204 558.827 685.694 563.656 683.28 568.308C680.9 572.925 677.687 577.062 673.638 580.719C669.626 584.342 664.831 587.218 659.256 589.349C653.716 591.444 647.449 592.491 640.453 592.491C630.723 592.491 622.023 590.29 614.352 585.886C606.717 581.483 600.68 575.109 596.241 566.763C591.838 558.418 589.636 548.315 589.636 536.455C589.636 524.558 591.873 514.438 596.348 506.092C600.822 497.747 606.895 491.391 614.565 487.023C622.236 482.619 630.865 480.418 640.453 480.418C646.774 480.418 652.633 481.305 658.031 483.081C663.464 484.857 668.276 487.449 672.466 490.858C676.657 494.232 680.066 498.369 682.694 503.269C685.357 508.17 687.062 513.781 687.807 520.102ZM713.599 591H688.883L726.543 481.909H756.266L793.873 591H769.157L741.831 506.838H740.979L713.599 591ZM712.055 548.12H770.435V566.124H712.055V548.12ZM890.749 481.909V591H870.828L823.367 522.339H822.568V591H799.503V481.909H819.744L866.833 550.517H867.791V481.909H890.749ZM898.151 500.925V481.909H987.746V500.925H954.348V591H931.549V500.925H898.151Z" fill="#A6FF00"/>
<rect x="98" y="644" width="506" height="27" fill="#121212"/>
<g clip-path="url(#clip0_251_97)">
<mask id="path-6-inside-1_251_97" fill="white">
<path d="M1030 585C1030 579.477 1034.48 575 1040 575C1045.52 575 1050 579.477 1050 585C1050 590.523 1045.52 595 1040 595C1034.48 595 1030 590.523 1030 585Z"/>
</mask>
<path d="M1040 595V594C1035.03 594 1031 589.971 1031 585H1030H1029C1029 591.075 1033.92 596 1040 596V595ZM1050 585H1049C1049 589.971 1044.97 594 1040 594V595V596C1046.08 596 1051 591.075 1051 585H1050ZM1040 575V576C1044.97 576 1049 580.029 1049 585H1050H1051C1051 578.925 1046.08 574 1040 574V575ZM1040 575V574C1033.92 574 1029 578.925 1029 585H1030H1031C1031 580.029 1035.03 576 1040 576V575Z" fill="white" mask="url(#path-6-inside-1_251_97)"/>
</g>
<rect x="1030.5" y="575.5" width="19" height="19" rx="9.5" stroke="#121212"/>
<rect x="1013" y="575" width="20" height="20" rx="10" fill="#A6FF00"/>
<defs>
<clipPath id="clip0_251_97">
<rect x="1030" y="575" width="20" height="20" rx="10" fill="white"/>
</clipPath>
</defs>
</svg>
